# xmcd
#
# Track frame offsets: 
#        182
#        17785
#        29192
#        42430
#        58145
#        71230
#        83950
#        96777
#        111135
#        126200
#        142025
#        156807
#        170347
#        188635
#        202790
#        215852
#        227450
#        238890
#
# Disc length: 3352 seconds
#
# Revision: 2
# Processed by: cddbd v1.5.2PL0 Copyright (c) Steve Scherf et al.
# Submitted via: ExactAudioCopy v0.90b4
#
DISCID=0a0d1612
DTITLE=Passe-Partout - 107 - Passe-Partout Nederlands luisterliedjes
DYEAR=1994
DGENRE=Vocal
TTITLE0=De Doodgewoonste Dingen
TTITLE1=Korenbloemenblauw
TTITLE2=Duizend Mooie Dingen
TTITLE3=Ik Geloof
TTITLE4=Heel de Wereldbol
TTITLE5=Het Sprookje Van Mijn Bestaan
TTITLE6=Zomaar In Een Stoel
TTITLE7=Een Dag Om Te Zingen
TTITLE8=De Kleinste Bloem
TTITLE9=Voor Geen Goud Van De Wereld
TTITLE10=Koning Te Rijk
TTITLE11=Jantje Spontaan
TTITLE12=Mooier Dan Alle Dromen
TTITLE13=De Hemel Op Aarde
TTITLE14=Avontuur
TTITLE15=Lekker Vrij
TTITLE16=God Wat Een Mooie Dag
TTITLE17=Stilte
EXTD=YEAR: 1994
EXTT0=
EXTT1=
EXTT2=
EXTT3=
EXTT4=
EXTT5=
EXTT6=
EXTT7=
EXTT8=
EXTT9=
EXTT10=
EXTT11=
EXTT12=
EXTT13=
EXTT14=
EXTT15=
EXTT16=
EXTT17=
PLAYORDER=
